<svg width="27" height="27" viewBox="0 0 27 27" fill="none" xmlns="http://www.w3.org/2000/svg">
<path d="M24.3319 2.77974C21.9638 0.361476 16.9114 3.22372 14.5137 5.67221C12.1161 8.12071 7.92322 13.5725 7.92322 13.5725C9.21522 14.8919 12.0865 17.824 13.7125 19.4845C13.7125 19.4845 18.8842 15.2742 21.4003 12.7048C23.9163 10.1354 26.6999 5.198 24.3319 2.77974Z" stroke="#C1C1C1" stroke-width="2" stroke-linecap="round" stroke-linejoin="round"/>
<rect x="17.979" y="6.33176" width="3.85127" height="3.85127" rx="1.92563" transform="rotate(45 17.979 6.33176)" fill="#C1C1C1"/>
<path d="M15.481 17.8054L15.3097 21.1669C15.2345 22.6416 17.0163 23.4334 18.0605 22.3893L20.4358 20.014C21.5889 18.8608 22.2625 17.3137 22.3209 15.684L22.4964 10.79L15.481 17.8054Z" fill="#C1C1C1"/>
<path d="M9.05777 11.382L5.69622 11.5534C4.22151 11.6285 3.4297 9.8467 4.47383 8.80257L6.84915 6.42726C8.00229 5.27412 9.5494 4.60056 11.1791 4.54212L16.0731 4.36664L9.05777 11.382Z" fill="#C1C1C1"/>
<path d="M5.39001 17.1408C5.66645 16.4111 6.60376 16.2098 7.15553 16.7615L10.1904 19.7964C10.7422 20.3482 10.5408 21.2855 9.81107 21.5619L4.92527 23.4129C4.05895 23.741 3.21087 22.893 3.53907 22.0266L5.39001 17.1408Z" fill="#C1C1C1"/>
</svg>
